<svg id="visual" viewBox="0 0 1920 1080" width="1920" height="1080" xmlns="http://www.w3.org/2000/svg" xmlns:xlink="http://www.w3.org/1999/xlink" version="1.1"><rect x="0" y="0" width="1920" height="1080" fill="#02132f"></rect><path d="M0 764L24.7 746.7C49.3 729.3 98.7 694.7 147.8 685.7C197 676.7 246 693.3 295.2 676.3C344.3 659.3 393.7 608.7 443 624C492.3 639.3 541.7 720.7 590.8 748.2C640 775.7 689 749.3 738.2 720.8C787.3 692.3 836.7 661.7 886 655.2C935.3 648.7 984.7 666.3 1034 673.5C1083.3 680.7 1132.7 677.3 1181.8 696.8C1231 716.3 1280 758.7 1329.2 752.3C1378.3 746 1427.7 691 1477 658.3C1526.3 625.7 1575.7 615.3 1624.8 598.8C1674 582.3 1723 559.7 1772.2 566.2C1821.3 572.7 1870.7 608.3 1895.3 626.2L1920 644L1920 1081L1895.3 1081C1870.7 1081 1821.3 1081 1772.2 1081C1723 1081 1674 1081 1624.8 1081C1575.7 1081 1526.3 1081 1477 1081C1427.7 1081 1378.3 1081 1329.2 1081C1280 1081 1231 1081 1181.8 1081C1132.7 1081 1083.3 1081 1034 1081C984.7 1081 935.3 1081 886 1081C836.7 1081 787.3 1081 738.2 1081C689 1081 640 1081 590.8 1081C541.7 1081 492.3 1081 443 1081C393.7 1081 344.3 1081 295.2 1081C246 1081 197 1081 147.8 1081C98.7 1081 49.3 1081 24.7 1081L0 1081Z" fill="#00296b"></path><path d="M0 687L24.7 706C49.3 725 98.7 763 147.8 764C197 765 246 729 295.2 709.7C344.3 690.3 393.7 687.7 443 698.7C492.3 709.7 541.7 734.3 590.8 739.5C640 744.7 689 730.3 738.2 745C787.3 759.7 836.7 803.3 886 814.3C935.3 825.3 984.7 803.7 1034 783.3C1083.3 763 1132.7 744 1181.8 745.3C1231 746.7 1280 768.3 1329.2 780.7C1378.3 793 1427.7 796 1477 785.7C1526.3 775.3 1575.7 751.7 1624.8 744.3C1674 737 1723 746 1772.2 741.7C1821.3 737.3 1870.7 719.7 1895.3 710.8L1920 702L1920 1081L1895.3 1081C1870.7 1081 1821.3 1081 1772.2 1081C1723 1081 1674 1081 1624.8 1081C1575.7 1081 1526.3 1081 1477 1081C1427.7 1081 1378.3 1081 1329.2 1081C1280 1081 1231 1081 1181.8 1081C1132.7 1081 1083.3 1081 1034 1081C984.7 1081 935.3 1081 886 1081C836.7 1081 787.3 1081 738.2 1081C689 1081 640 1081 590.8 1081C541.7 1081 492.3 1081 443 1081C393.7 1081 344.3 1081 295.2 1081C246 1081 197 1081 147.8 1081C98.7 1081 49.3 1081 24.7 1081L0 1081Z" fill="#002763"></path><path d="M0 766L24.7 761.3C49.3 756.7 98.7 747.3 147.8 749.3C197 751.3 246 764.7 295.2 762.5C344.3 760.3 393.7 742.7 443 760.3C492.3 778 541.7 831 590.8 856C640 881 689 878 738.2 874.3C787.3 870.7 836.7 866.3 886 861C935.3 855.7 984.7 849.3 1034 857.8C1083.3 866.3 1132.7 889.7 1181.8 872.5C1231 855.3 1280 797.7 1329.2 766.7C1378.3 735.7 1427.7 731.3 1477 743.5C1526.3 755.7 1575.7 784.3 1624.8 812.7C1674 841 1723 869 1772.2 863.3C1821.3 857.7 1870.7 818.3 1895.3 798.7L1920 779L1920 1081L1895.3 1081C1870.7 1081 1821.3 1081 1772.2 1081C1723 1081 1674 1081 1624.8 1081C1575.7 1081 1526.3 1081 1477 1081C1427.7 1081 1378.3 1081 1329.2 1081C1280 1081 1231 1081 1181.8 1081C1132.7 1081 1083.3 1081 1034 1081C984.7 1081 935.3 1081 886 1081C836.7 1081 787.3 1081 738.2 1081C689 1081 640 1081 590.8 1081C541.7 1081 492.3 1081 443 1081C393.7 1081 344.3 1081 295.2 1081C246 1081 197 1081 147.8 1081C98.7 1081 49.3 1081 24.7 1081L0 1081Z" fill="#00245b"></path><path d="M0 892L24.7 891.5C49.3 891 98.7 890 147.8 883.3C197 876.7 246 864.3 295.2 877.5C344.3 890.7 393.7 929.3 443 931.8C492.3 934.3 541.7 900.7 590.8 892.8C640 885 689 903 738.2 915.3C787.3 927.7 836.7 934.3 886 927.5C935.3 920.7 984.7 900.3 1034 903.5C1083.3 906.7 1132.7 933.3 1181.8 930.7C1231 928 1280 896 1329.2 897.2C1378.3 898.3 1427.7 932.7 1477 939.3C1526.3 946 1575.7 925 1624.8 917.7C1674 910.3 1723 916.7 1772.2 903.3C1821.3 890 1870.7 857 1895.3 840.5L1920 824L1920 1081L1895.3 1081C1870.7 1081 1821.3 1081 1772.2 1081C1723 1081 1674 1081 1624.8 1081C1575.7 1081 1526.3 1081 1477 1081C1427.7 1081 1378.3 1081 1329.2 1081C1280 1081 1231 1081 1181.8 1081C1132.7 1081 1083.3 1081 1034 1081C984.7 1081 935.3 1081 886 1081C836.7 1081 787.3 1081 738.2 1081C689 1081 640 1081 590.8 1081C541.7 1081 492.3 1081 443 1081C393.7 1081 344.3 1081 295.2 1081C246 1081 197 1081 147.8 1081C98.7 1081 49.3 1081 24.7 1081L0 1081Z" fill="#012153"></path><path d="M0 940L24.7 939C49.3 938 98.7 936 147.8 943.5C197 951 246 968 295.2 974C344.3 980 393.7 975 443 979.8C492.3 984.7 541.7 999.3 590.8 1001C640 1002.7 689 991.3 738.2 973.8C787.3 956.3 836.7 932.7 886 940C935.3 947.3 984.7 985.7 1034 995C1083.3 1004.3 1132.7 984.7 1181.8 985.5C1231 986.3 1280 1007.7 1329.2 1016.5C1378.3 1025.3 1427.7 1021.7 1477 1009.5C1526.3 997.3 1575.7 976.7 1624.8 960.5C1674 944.3 1723 932.7 1772.2 944.2C1821.3 955.7 1870.7 990.3 1895.3 1007.7L1920 1025L1920 1081L1895.3 1081C1870.7 1081 1821.3 1081 1772.2 1081C1723 1081 1674 1081 1624.8 1081C1575.7 1081 1526.3 1081 1477 1081C1427.7 1081 1378.3 1081 1329.2 1081C1280 1081 1231 1081 1181.8 1081C1132.7 1081 1083.3 1081 1034 1081C984.7 1081 935.3 1081 886 1081C836.7 1081 787.3 1081 738.2 1081C689 1081 640 1081 590.8 1081C541.7 1081 492.3 1081 443 1081C393.7 1081 344.3 1081 295.2 1081C246 1081 197 1081 147.8 1081C98.7 1081 49.3 1081 24.7 1081L0 1081Z" fill="#021e4b"></path></svg>