<svg id="visual" viewBox="0 0 1800 900" width="1800" height="900" xmlns="http://www.w3.org/2000/svg" xmlns:xlink="http://www.w3.org/1999/xlink" version="1.1"><rect x="0" y="0" width="1800" height="900" fill="#00296b"></rect><defs><linearGradient id="grad1_0" x1="50%" y1="0%" x2="100%" y2="100%"><stop offset="10%" stop-color="#00296b" stop-opacity="1"></stop><stop offset="90%" stop-color="#00296b" stop-opacity="1"></stop></linearGradient></defs><defs><linearGradient id="grad2_0" x1="0%" y1="0%" x2="50%" y2="100%"><stop offset="10%" stop-color="#00296b" stop-opacity="1"></stop><stop offset="90%" stop-color="#00296b" stop-opacity="1"></stop></linearGradient></defs><g transform="translate(1800, 0)"><path d="M0 810C-70.5 750.6 -141 691.2 -215.4 662.9C-289.8 634.5 -368 637.3 -446.1 614C-524.3 590.8 -602.3 541.7 -655.3 476.1C-708.3 410.5 -736.4 328.4 -758 246.3C-779.6 164.2 -794.8 82.1 -810 0L0 0Z" fill="#0743a2"></path></g><g transform="translate(0, 900)"><path d="M0 -810C88 -795.2 176 -780.3 236.7 -728.5C297.4 -676.7 331 -587.9 393.2 -541.2C455.5 -494.5 546.6 -489.9 618.1 -449.1C689.6 -408.2 741.6 -331.2 770.4 -250.3C799.1 -169.4 804.5 -84.7 810 0L0 0Z" fill="#0743a2"></path></g></svg>