<svg id="visual" viewBox="0 0 1800 900" width="1800" height="900" xmlns="http://www.w3.org/2000/svg" xmlns:xlink="http://www.w3.org/1999/xlink" version="1.1"><rect width="1800" height="900" fill="#011028"></rect><g><g transform="translate(18 764)"><path d="M0 -148.8L116.3 -92.8L145 33.1L64.5 134L-64.5 134L-145 33.1L-116.3 -92.8Z" fill="#004AAD"></path></g><g transform="translate(1589 655)"><path d="M0 -135L105.5 -84.2L131.6 30L58.6 121.6L-58.6 121.6L-131.6 30L-105.5 -84.2Z" fill="#004AAD"></path></g><g transform="translate(953 601)"><path d="M0 -88L68.8 -54.9L85.8 19.6L38.2 79.3L-38.2 79.3L-85.8 19.6L-68.8 -54.9Z" fill="#004AAD"></path></g><g transform="translate(1713 211)"><path d="M0 -130L101.6 -81.1L126.7 28.9L56.4 117.1L-56.4 117.1L-126.7 28.9L-101.6 -81.1Z" fill="#004AAD"></path></g><g transform="translate(588 602)"><path d="M0 -90L70.4 -56.1L87.7 20L39 81.1L-39 81.1L-87.7 20L-70.4 -56.1Z" fill="#004AAD"></path></g><g transform="translate(337 321)"><path d="M0 -45L35.2 -28.1L43.9 10L19.5 40.5L-19.5 40.5L-43.9 10L-35.2 -28.1Z" fill="#004AAD"></path></g><g transform="translate(801 10)"><path d="M0 -142L111 -88.5L138.4 31.6L61.6 127.9L-61.6 127.9L-138.4 31.6L-111 -88.5Z" fill="#004AAD"></path></g><g transform="translate(694 313)"><path d="M0 -74L57.9 -46.1L72.1 16.5L32.1 66.7L-32.1 66.7L-72.1 16.5L-57.9 -46.1Z" fill="#004AAD"></path></g><g transform="translate(1255 853)"><path d="M0 -141L110.2 -87.9L137.5 31.4L61.2 127L-61.2 127L-137.5 31.4L-110.2 -87.9Z" fill="#004AAD"></path></g><g transform="translate(37 446)"><path d="M0 -52L40.7 -32.4L50.7 11.6L22.6 46.9L-22.6 46.9L-50.7 11.6L-40.7 -32.4Z" fill="#004AAD"></path></g><g transform="translate(36 3)"><path d="M0 -89L69.6 -55.5L86.8 19.8L38.6 80.2L-38.6 80.2L-86.8 19.8L-69.6 -55.5Z" fill="#004AAD"></path></g><g transform="translate(1280 391)"><path d="M0 -108L84.4 -67.3L105.3 24L46.9 97.3L-46.9 97.3L-105.3 24L-84.4 -67.3Z" fill="#004AAD"></path></g><g transform="translate(1199 69)"><path d="M0 -42L32.8 -26.2L40.9 9.3L18.2 37.8L-18.2 37.8L-40.9 9.3L-32.8 -26.2Z" fill="#004AAD"></path></g><g transform="translate(337 825)"><path d="M0 -100L78.2 -62.3L97.5 22.3L43.4 90.1L-43.4 90.1L-97.5 22.3L-78.2 -62.3Z" fill="#004AAD"></path></g><g transform="translate(721 896)"><path d="M0 -94L73.5 -58.6L91.6 20.9L40.8 84.7L-40.8 84.7L-91.6 20.9L-73.5 -58.6Z" fill="#004AAD"></path></g><g transform="translate(500 36)"><path d="M0 -76L59.4 -47.4L74.1 16.9L33 68.5L-33 68.5L-74.1 16.9L-59.4 -47.4Z" fill="#004AAD"></path></g></g></svg>