<svg id="visual" viewBox="0 0 900 600" width="900" height="600" xmlns="http://www.w3.org/2000/svg" xmlns:xlink="http://www.w3.org/1999/xlink" version="1.1"><rect width="900" height="600" fill="#012053"></rect><g><g transform="translate(808 449)"><path d="M0 -100.4L78.5 -62.6L97.9 22.3L43.6 90.5L-43.6 90.5L-97.9 22.3L-78.5 -62.6Z" fill="#0758c3"></path></g><g transform="translate(211 306)"><path d="M0 -59L46.1 -36.8L57.5 13.1L25.6 53.2L-25.6 53.2L-57.5 13.1L-46.1 -36.8Z" fill="#0758c3"></path></g><g transform="translate(55 134)"><path d="M0 -78L61 -48.6L76 17.4L33.8 70.3L-33.8 70.3L-76 17.4L-61 -48.6Z" fill="#0758c3"></path></g><g transform="translate(500 4)"><path d="M0 -18L14.1 -11.2L17.5 4L7.8 16.2L-7.8 16.2L-17.5 4L-14.1 -11.2Z" fill="#0758c3"></path></g><g transform="translate(569 474)"><path d="M0 -32L25 -20L31.2 7.1L13.9 28.8L-13.9 28.8L-31.2 7.1L-25 -20Z" fill="#0758c3"></path></g><g transform="translate(413 221)"><path d="M0 -80L62.5 -49.9L78 17.8L34.7 72.1L-34.7 72.1L-78 17.8L-62.5 -49.9Z" fill="#0758c3"></path></g><g transform="translate(655 251)"><path d="M0 -20L15.6 -12.5L19.5 4.5L8.7 18L-8.7 18L-19.5 4.5L-15.6 -12.5Z" fill="#0758c3"></path></g><g transform="translate(33 430)"><path d="M0 -97L75.8 -60.5L94.6 21.6L42.1 87.4L-42.1 87.4L-94.6 21.6L-75.8 -60.5Z" fill="#0758c3"></path></g><g transform="translate(853 30)"><path d="M0 -41L32.1 -25.6L40 9.1L17.8 36.9L-17.8 36.9L-40 9.1L-32.1 -25.6Z" fill="#0758c3"></path></g><g transform="translate(242 19)"><path d="M0 -98L76.6 -61.1L95.5 21.8L42.5 88.3L-42.5 88.3L-95.5 21.8L-76.6 -61.1Z" fill="#0758c3"></path></g><g transform="translate(204 538)"><path d="M0 -87L68 -54.2L84.8 19.4L37.7 78.4L-37.7 78.4L-84.8 19.4L-68 -54.2Z" fill="#0758c3"></path></g></g></svg>